<?xml version="1.0" standalone="no"?>
<!DOCTYPE svg PUBLIC "-//W3C//DTD SVG 20010904//EN"
 "http://www.w3.org/TR/2001/REC-SVG-20010904/DTD/svg10.dtd">
<svg version="1.0" xmlns="http://www.w3.org/2000/svg"
 width="1280.000000pt" height="798.000000pt" viewBox="0 0 1280.000000 798.000000"
 preserveAspectRatio="xMidYMid meet">
<metadata>
Created by potrace 1.15, written by Peter Selinger 2001-2017
</metadata>
<g transform="translate(0.000000,798.000000) scale(0.100000,-0.100000)"
fill="#2196f3" stroke="none">
<path d="M0 3990 l0 -3990 6400 0 6400 0 0 3990 0 3990 -6400 0 -6400 0 0
-3990z m2439 1895 c1211 -1039 2201 -1892 2201 -1895 0 -3 -990 -856 -2201
-1895 -1397 -1200 -2209 -1891 -2225 -1893 l-24 -3 0 3791 0 3791 24 -3 c16
-2 828 -693 2225 -1893z m9876 1876 c-60 -57 -5832 -5124 -5842 -5128 -6 -3
-427 352 -935 788 -508 436 -1256 1079 -1663 1429 -407 350 -1332 1144 -2055
1764 -723 621 -1324 1137 -1335 1147 -19 19 124 19 5915 19 5820 0 5934 0
5915 -19z m295 -3772 l0 -3790 -22 3 c-18 3 -4327 3774 -4327 3788 1 14 4314
3790 4330 3790 19 0 19 -86 19 -3791z m-7000 -854 c470 -404 858 -734 862
-733 4 2 381 332 838 733 457 402 837 730 844 730 7 0 951 -823 2096 -1830
l2083 -1830 -2967 -3 c-1631 -1 -4300 -1 -5931 0 l-2965 3 1572 1350 c864 743
1824 1567 2132 1832 309 265 566 482 571 482 6 1 395 -330 865 -734z"/>
</g>
</svg>
